<svg xmlns="http://www.w3.org/2000/svg" xmlns:xlink="http://www.w3.org/1999/xlink" width="500" zoomAndPan="magnify" viewBox="0 0 375 374.999991" height="500" preserveAspectRatio="xMidYMid meet" version="1.0"><path fill="#000000" d="M 187.5 147.855469 C 168.035156 147.855469 152.195312 167.546875 152.195312 191.746094 C 152.195312 215.949219 168.035156 235.640625 187.5 235.640625 C 206.964844 235.640625 222.804688 215.949219 222.804688 191.746094 C 222.804688 167.542969 206.964844 147.855469 187.5 147.855469 Z M 158.703125 206.941406 L 158.667969 206.835938 C 157.5 203.214844 157.152344 200.039062 157.148438 200.007812 L 157.144531 199.960938 L 157.179688 199.933594 L 187.5 177.472656 L 217.855469 199.960938 L 217.851562 200.007812 C 217.847656 200.039062 217.5 203.214844 216.332031 206.835938 L 216.296875 206.941406 L 216.210938 206.875 L 216.210938 206.878906 L 187.496094 185.546875 L 158.703125 206.945312 Z M 187.5 231.5 C 177.386719 231.5 167.921875 225.226562 162.0625 214.683594 L 161.992188 214.546875 L 187.496094 195.652344 L 213.007812 214.550781 L 212.941406 214.671875 L 212.941406 214.675781 C 207.085938 225.222656 197.617188 231.5 187.5 231.5 Z M 187.5 167.195312 L 156.359375 190.335938 L 156.363281 190.179688 C 156.675781 179.914062 160.054688 170.3125 165.878906 163.148438 C 171.71875 155.957031 179.398438 151.996094 187.5 151.996094 C 195.601562 151.996094 203.277344 155.957031 209.121094 163.148438 C 214.945312 170.3125 218.320312 179.914062 218.636719 190.179688 L 218.640625 190.335938 L 218.511719 190.242188 Z M 187.5 167.195312 " fill-opacity="1" fill-rule="nonzero"/></svg>